# xmcd CD database file
#
# Track frame offsets:
#	150
#	21793
#	37518
#	54613
#	70070
#	85225
#	99445
#	112548
#	128443
#	148403
#
# Disc length: 2194 seconds
#
# Revision: 1
# Processed by: cddbd v1.5PL3 Copyright (c) Steve Scherf et al.
# Submitted via: CDex 1.51
#
DISCID=7308900a
DTITLE=Izzy Stradlin - River
DYEAR=2001
DGENRE=Hard Rock
TTITLE0=Jump In Now
TTITLE1=Head On Out
TTITLE2=River
TTITLE3=Far Below Me Now
TTITLE4=What I Told You
TTITLE5=Get Away
TTITLE6=Underground
TTITLE7=Shall Walk
TTITLE8=Run-In
TTITLE9=Feelin' Alright
EXTD=YEAR: 2001
EXTT0=
EXTT1=
EXTT2=
EXTT3=
EXTT4=
EXTT5=
EXTT6=
EXTT7=
EXTT8=
EXTT9=
PLAYORDER=
